<svg xmlns="http://www.w3.org/2000/svg" viewBox="0 0 256 256" width="256" height="256" role="img" aria-label="Warden">
  <rect width="256" height="256" rx="48" fill="#10151f"/>
  <path d="M128 30 54 62v60c0 47 30 84 74 104 44-20 74-57 74-104V62z" fill="#1f7a8c"/>
  <path d="M128 48 72 72v50c0 36 21 64 56 82 35-18 56-46 56-82V72z" fill="#0f2233"/>
  <path d="M90 123c10-18 23-27 38-27s28 9 38 27c-10 18-23 27-38 27s-28-9-38-27z" fill="#e6f7fb"/>
  <circle cx="128" cy="123" r="18" fill="#1f7a8c"/>
  <circle cx="128" cy="123" r="8" fill="#10151f"/>
  <path d="M128 77v22M128 147v22M82 123h25M149 123h25" stroke="#e6f7fb" stroke-width="8" stroke-linecap="round"/>
</svg>
